<?xml version="1.0" encoding="UTF-8" standalone="no"?>
<!DOCTYPE svg PUBLIC "-//W3C//DTD SVG 20010904//EN"
              "http://www.w3.org/TR/2001/REC-SVG-20010904/DTD/svg10.dtd">

<svg xmlns="http://www.w3.org/2000/svg"
     width="16.6667in" height="5.93056in"
     viewBox="0 0 1200 427">
  <path id="Unnamed"
        fill="none" stroke="black" stroke-width="1"
        d="M 287.75,246.50
           C 317.98,242.61 349.50,233.50 349.50,233.50
             349.50,233.50 502.50,192.00 502.50,192.00
             502.50,192.00 830.00,105.00 830.00,105.00
             830.00,105.00 1197.00,8.50 1197.00,8.50
             1197.00,8.50 724.50,210.00 724.50,210.00
             724.50,210.00 532.25,292.00 532.25,292.00
             532.25,292.00 360.25,366.50 360.25,366.50
             360.25,366.50 324.62,383.11 290.25,395.75
             256.63,408.11 220.25,417.25 220.25,417.25
             220.25,417.25 191.55,424.54 163.25,426.50
             137.68,428.28 109.25,424.75 109.25,424.75
             109.25,424.75 93.64,423.25 76.25,416.00
             59.48,409.01 41.02,396.37 34.50,389.75
             24.60,379.69 14.19,366.09 9.50,354.25
             -4.10,319.93 1.00,278.00 1.00,278.00
             1.00,278.00 6.89,246.05 16.75,219.25
             26.89,191.69 41.00,169.25 41.00,169.25
             41.00,169.25 54.64,144.85 69.00,123.75
             80.75,106.49 93.75,91.75 93.75,91.75
             93.75,91.75 109.92,71.25 128.25,50.50
             149.35,26.60 172.64,1.03 172.64,1.03
             172.64,1.03 150.86,36.96 138.00,78.67
             131.86,98.59 127.67,112.72 127.82,132.55
             127.89,142.59 128.83,160.89 130.73,169.64
             135.80,193.08 149.27,212.33 166.00,224.67
             176.51,232.42 189.00,238.12 200.00,242.00
             217.09,248.02 237.51,248.69 237.81,248.69
             237.65,248.68 262.01,249.81 287.75,246.50 Z" />
</svg>
